<?xml version="1.0" encoding="utf-8"?>
<!-- Generator: Adobe Illustrator 27.8.0, SVG Export Plug-In . SVG Version: 6.00 Build 0)  -->
<svg version="1.1" id="Layer_1" xmlns="http://www.w3.org/2000/svg" xmlns:xlink="http://www.w3.org/1999/xlink" x="0px" y="0px"
	 viewBox="0 0 475.7 104.8" style="enable-background:new 0 0 475.7 104.8;" xml:space="preserve">
<style type="text/css">
	.st0{fill:#004B8D;}
	.st1{fill:#8B9B92;}
	.st2{fill:url(#SVGID_1_);}
	.st3{fill:#806E59;}
	.st4{fill:url(#SVGID_00000175297337671500496930000003862125244668972966_);}
	.st5{fill:url(#SVGID_00000035524075411382101260000003877948971670015927_);}
	.st6{fill:url(#SVGID_00000041277463280105604870000010027892685287209605_);}
</style>
<g>
	<path class="st0" d="M201.7,20.1l14.8,45.8h-8.4l-3.8-12.2h-15.8l-3.7,12.2h-7.1l14.8-45.8H201.7z M190.3,47.4h12.1l-6.1-19.5
		L190.3,47.4z"/>
	<path class="st0" d="M228.8,31.9h7.6v5.2h-7.6v16.4c0,4.9,0.7,7.1,4.8,7.1c1.2,0,2.4-0.1,3.8-0.5v5.9c-1.8,0.4-3.6,0.7-5.4,0.7
		c-8.1,0-10.7-3.8-10.7-12.7v-17h-5.7v-5.2h5.9l0.3-8.8l7.1-0.6V31.9z"/>
	<path class="st0" d="M250.4,20.1v45.8h-7.7V20.1H250.4z"/>
	<path class="st0" d="M273.4,31c9.8,0,13.7,4.1,13.7,13.3v14.8c0,2.7,0.3,4.9,1,6.7h-7.6c-0.5-1.8-0.7-3.7-0.7-5.9
		c-2.3,4.4-6.4,6.7-11.5,6.7c-7.1,0-11.7-4.2-11.7-10.2c0-8.2,7.3-12.1,22.3-12.1c0.2,0,0.5,0,0.7,0v-1.8c0-4.3-2.3-6.3-7.1-6.3
		c-4.6,0-7.2,1.8-7.9,5.3l-7.1-0.9C259.1,34.3,264.4,31,273.4,31z M278,49c-8.8,0-13.3,2.4-13.3,7.2c0,3,2.3,5.1,6.1,5.1
		c4.9,0,8.9-4.3,8.9-9.8V49C279.1,49,278.5,49,278,49z"/>
	<path class="st0" d="M312.7,40.9c-1.1-3.1-3.4-4.6-7.2-4.6c-3.8,0-5.9,1.6-5.9,4.4c0,3.6,3.5,3.5,10,4.9c7.4,1.6,11,4.4,11,10
		c0,6.3-5.5,11-14.3,11c-8,0-13.5-3.6-15.2-10l6.5-1.1c1.1,3.5,4.4,5.7,8.9,5.7c4.3,0,6.7-2,6.7-4.7c0-3.5-3.2-3.7-9-4.9
		c-7.9-1.7-11.8-4.1-11.8-10c0-6.1,5.1-10.6,13.3-10.6c6.8,0,11.4,3,13.4,8.6L312.7,40.9z"/>
	<path class="st0" d="M353.5,20.1c11,0,16.8,5,16.8,14.2c0,7.9-6.1,13.7-16.1,13.7H345v17.9h-8.2V20.1H353.5z M345,41.6h7.3
		c5.9,0,9-2.6,9-7.7c0-4.4-3-7.3-8.4-7.3H345V41.6z"/>
	<path class="st0" d="M402.2,48.9c0,10.9-6.6,17.9-16.2,17.9c-9.6,0-16.2-7-16.2-17.9C369.9,38,376.5,31,386,31
		C395.7,31,402.2,38,402.2,48.9z M378,48.9c0,8,3,12.3,8,12.3c4.9,0,8.1-4.4,8.1-12.3c0-7.9-3.2-12.3-8.1-12.3
		C381,36.6,378,40.9,378,48.9z"/>
	<path class="st0" d="M413.9,20.1v45.8h-7.7V20.1H413.9z"/>
	<path class="st0" d="M436.8,31c9.8,0,13.7,4.1,13.7,13.3v14.8c0,2.7,0.3,4.9,1,6.7h-7.6c-0.5-1.8-0.7-3.7-0.7-5.9
		c-2.3,4.4-6.4,6.7-11.5,6.7c-7.1,0-11.7-4.2-11.7-10.2c0-8.2,7.3-12.1,22.3-12.1c0.2,0,0.5,0,0.7,0v-1.8c0-4.3-2.3-6.3-7.1-6.3
		c-4.6,0-7.2,1.8-7.9,5.3l-7.1-0.9C422.5,34.3,427.8,31,436.8,31z M441.4,49c-8.8,0-13.3,2.4-13.3,7.2c0,3,2.3,5.1,6.1,5.1
		c4.9,0,8.9-4.3,8.9-9.8V49C442.5,49,442,49,441.4,49z"/>
	<path class="st0" d="M475.7,38.4c-0.7-0.1-1.3-0.1-1.7-0.1c-5.5,0-9,4-9,10.7v16.8h-7.6V31.9h6.9v7.3c1.7-5.5,4.8-8.2,9.6-8.2
		c0.5,0,1.1,0,1.8,0.1V38.4z"/>
</g>
<g>
	<g>
		<path class="st1" d="M180.8,87.9h-1.6V73.5h1.6V87.9z"/>
		<path class="st1" d="M189.3,87.9h-1.6V75h-3.5v-1.5h8.6V75h-3.5V87.9z"/>
		<path class="st1" d="M199.1,73.7l-2.2,4.9l-1-0.4l1.8-5L199.1,73.7z"/>
		<path class="st1" d="M208.8,76.3c-0.6-1-1.3-1.6-2.5-1.6c-1.3,0-2.4,0.9-2.4,2.2c0,1.2,1.3,1.8,2.3,2.3l1,0.4
			c1.9,0.8,3.5,1.8,3.5,4.1c0,2.5-2,4.5-4.5,4.5c-2.3,0-4.1-1.5-4.5-3.7l1.6-0.4c0.2,1.5,1.3,2.7,2.9,2.7c1.6,0,3-1.2,3-2.8
			c0-1.7-1.3-2.3-2.7-2.9l-0.9-0.4c-1.7-0.8-3.1-1.6-3.1-3.7c0-2.2,1.9-3.7,4.1-3.7c1.6,0,3,0.8,3.7,2.2L208.8,76.3z"/>
		<path class="st1" d="M224.5,83.8l-1.7,4.1H221l6.7-15.2l6.5,15.2h-1.8l-1.7-4.1H224.5z M227.7,76.5l-2.5,5.8h4.9L227.7,76.5z"/>
		<path class="st1" d="M239.1,86.4h4v1.5h-5.6V73.5h1.6V86.4z"/>
		<path class="st1" d="M248,86.4h4v1.5h-5.6V73.5h1.6V86.4z"/>
		<path class="st1" d="M265.1,83.8l-1.7,4.1h-1.8l6.7-15.2l6.5,15.2H273l-1.7-4.1H265.1z M268.3,76.5l-2.5,5.8h4.9L268.3,76.5z"/>
		<path class="st1" d="M278.5,73.5h2.4c2.6,0,4.8,1,4.8,3.9c0,1.2-0.4,2.2-1.4,2.8c1.7,0.4,2.7,2,2.7,3.7c0,2.9-2.3,4-5.2,4h-3.4
			V73.5z M280.1,79.8h0.6c1.8,0,3.4-0.2,3.4-2.5c0-2.2-1.4-2.4-3.4-2.4h-0.6V79.8z M280.1,86.4h1.6c1.8,0,3.7-0.4,3.7-2.6
			c0-2.2-2.2-2.6-3.9-2.6h-1.4V86.4z"/>
		<path class="st1" d="M305.4,80.7c0,4.2-3.4,7.5-7.5,7.5s-7.5-3.3-7.5-7.5c0-4.1,3.4-7.5,7.5-7.5S305.4,76.6,305.4,80.7z M292,80.7
			c0,3.3,2.6,6,5.9,6c3.3,0,5.9-2.7,5.9-6c0-3.3-2.6-6-5.9-6C294.6,74.7,292,77.4,292,80.7z"/>
		<path class="st1" d="M310.9,82.1c0,1.1,0,2.3,0.6,3.2c0.6,0.9,1.9,1.4,2.9,1.4c1,0,2.2-0.5,2.8-1.3c0.8-0.9,0.7-2.2,0.7-3.3v-8.6
			h1.6v9.1c0,1.6-0.1,2.8-1.3,4c-1,1.1-2.4,1.7-3.9,1.7c-1.4,0-2.8-0.5-3.7-1.5c-1.3-1.2-1.4-2.5-1.4-4.2v-9.1h1.6V82.1z"/>
		<path class="st1" d="M328,87.9h-1.6V75h-3.5v-1.5h8.6V75H328V87.9z"/>
		<path class="st1" d="M353.7,86.8c-1.2,0.9-2.9,1.4-4.4,1.4c-4.1,0-7.5-3.3-7.5-7.5c0-4.1,3.4-7.5,7.5-7.5c4.2,0,7.5,3.4,7.5,7.5
			c0,2-0.7,3.6-2.1,5.1l2.2,2.2h-2.1L353.7,86.8z M353.7,84.7c1.1-1.1,1.6-2.5,1.6-4c0-3.3-2.6-6-5.9-6c-3.3,0-5.9,2.7-5.9,6
			c0,3.3,2.6,6,5.9,6c1.1,0,2.3-0.4,3.2-1.1l-3.5-3.5h2.1L353.7,84.7z"/>
		<path class="st1" d="M362.4,82.1c0,1.1,0,2.3,0.6,3.2c0.6,0.9,1.9,1.4,2.9,1.4c1,0,2.2-0.5,2.8-1.3c0.8-0.9,0.7-2.2,0.7-3.3v-8.6
			h1.6v9.1c0,1.6-0.1,2.8-1.3,4c-1,1.1-2.4,1.7-3.9,1.7c-1.4,0-2.8-0.5-3.7-1.5c-1.3-1.2-1.4-2.5-1.4-4.2v-9.1h1.6V82.1z"/>
		<path class="st1" d="M377.8,83.8l-1.7,4.1h-1.8l6.7-15.2l6.5,15.2h-1.8l-1.7-4.1H377.8z M381,76.5l-2.5,5.8h4.9L381,76.5z"/>
		<path class="st1" d="M392.4,86.4h4v1.5h-5.6V73.5h1.6V86.4z"/>
		<path class="st1" d="M401.4,87.9h-1.6V73.5h1.6V87.9z"/>
		<path class="st1" d="M409.9,87.9h-1.6V75h-3.5v-1.5h8.6V75h-3.5V87.9z"/>
		<path class="st1" d="M415.5,73.5h1.9l3.7,6.5l3.7-6.5h1.9l-4.7,8.3v6.2h-1.6v-6.2L415.5,73.5z"/>
	</g>
	<g>
		<path class="st1" d="M432.9,83.2v0.6h-1.6v4.1h-0.6v-4.1h-1.6v-0.6H432.9z"/>
		<path class="st1" d="M433.4,83.2h0.9l1.3,4l1.3-4h0.9v4.7h-0.6v-2.8c0-0.1,0-0.3,0-0.5c0-0.2,0-0.5,0-0.7l-1.3,3.9h-0.6L434,84
			v0.1c0,0.1,0,0.3,0,0.5c0,0.2,0,0.4,0,0.5v2.8h-0.6V83.2z"/>
	</g>
</g>
<g>
	
		<radialGradient id="SVGID_1_" cx="99.6784" cy="184.6347" r="177.2815" fx="97.7928" fy="105.2423" gradientTransform="matrix(0.998 0 0 1 1.3496 0)" gradientUnits="userSpaceOnUse">
		<stop  offset="0.184" style="stop-color:#003C7B"/>
		<stop  offset="0.2424" style="stop-color:#003877"/>
		<stop  offset="0.3028" style="stop-color:#002D6A"/>
		<stop  offset="0.3643" style="stop-color:#001B56"/>
		<stop  offset="0.426" style="stop-color:#000239"/>
		<stop  offset="0.4294" style="stop-color:#000037"/>
		<stop  offset="0.8896" style="stop-color:#12183A"/>
		<stop  offset="1" style="stop-color:#052F5F"/>
	</radialGradient>
	<path class="st2" d="M79.5,2.3C35.6,2.3,0,25.2,0,53.6c0,28.3,35.6,51.3,79.5,51.3c43.9,0,79.5-23,79.5-51.3
		C159,25.2,123.4,2.3,79.5,2.3z"/>
	<path class="st3" d="M103.1,22.1l-0.8-1.3l-1.8-0.3l-0.1,2.3l0,0c0,0.3,0.1,0.7,0.3,1.2c0.7,1.6,1.6,1.4,1.8,1.2
		c0.2-0.1,0.7-0.5,0.7-1V22.1z"/>
	<path class="st3" d="M116.9,22.7L116,22l-2-0.5l-0.1,2.2c0,0-0.2,2.6,2.5,2.3c0.3-0.7,0.4-1.2,0.3-1.5L116.9,22.7z"/>
	<path class="st3" d="M79.6,2.2C35.6,2.2,0,25.2,0,53.5c0,28.3,35.6,51.3,79.6,51.3c44,0,79.6-23,79.6-51.3
		C159.2,25.2,123.6,2.2,79.6,2.2z M28.6,86.7c2.7-5.2,7-10.6,15.8-13.9c1.4-0.5,2.5-0.9,3.5-1.2l-4,2.9l0,1.5
		c-6.5,4.3-9.8,8.4-11.1,13C31.4,88.2,30,87.5,28.6,86.7z M51.6,73.8c-0.9,5.7-2.8,16-1.6,21.5c-4.8-1.3-9.2-2.8-13.4-4.6
		c0.9-4.2,4.2-10,12.8-17.7l0.1-1.9C52.9,70.2,52,71.6,51.6,73.8z M63.4,98c-2.2-0.3-4.3-0.6-6.4-1c-2.2-1.7-4.5-7.6-1.7-27.7
		c0-0.1,0-0.2,0-0.3l0.1-2.1l-0.8,1c-1.9-1.2-7.5,0-14.7,3c0,0-10.2,4.3-14.9,13.8c-4.9-3.2-9.1-6.9-12.3-10.9
		c0.2-5,0.9-10.4,2.3-16.1c4.8-19.6,25.6-17.1,25.6-17.1c11.4-0.3,15.6-4.1,15.6-4.1c2-1.2,3.5-2.5,8.3-3.6
		C81.4,29,79.1,48.4,80,46.5c4.6-10-2.7-16.5-2.7-16.5C85,30.5,96,25.7,96,25.7c2.2,0.5,2.4-0.3,2.5-0.9h0l0-0.1c0,0,0-0.1,0-0.1
		c0,0,0-0.1,0-0.2l0.1-2l-0.1,0c0.1-0.9,0.5-1.9,1.6-2.4c1.4-0.7,2.4,0.3,3.1,0.6c0.3,0.1,1.3,0.6,4.3,0.5c10-0.3,11.4,0.9,11.4,0.9
		c0.9,0.9,1.3,2.1,3.7,2.7c3.3,0.8,5.4,1.5,6.8,2l-0.2,2.3l0,0c0,0.1,0,0.2,0,0.3c0.1,1.3,0.3,2.4,0.3,2.4s0.2,1.8-1.3,2
		c-1.5,0.2-5.9,0.7-6.7-2.3c-0.7-3-1.1-4.4-1.7-5.3c-0.6-0.9,0.4,4.5-3.3,6.7c-3.7,2.3-19.1,7.7-30.8,14.5c0,0-16.3,8.5-21.9,30.7
		C61.3,88.1,61,93.2,63.4,98z M85.8,98.9c-3.9-2.6-12.2-11.3-2.5-33.5l0.1-0.1c15.4-2.2,36.9-3.2,62.5,8.4
		C134.6,87.6,112.2,97.5,85.8,98.9z M85,61.8c0.9-1.7,1.8-3.5,2.9-5.4l0.1-2.2l-1.6,1.4L85.7,58c-7.3,7.6-14.2,23.1-11.3,34.9
		c0.8,3.4,1.7,5.2,2.5,6.1c-1.6,0-3.3-0.1-4.9-0.2C59.8,86.7,76.6,63,76.6,63c5.3-8.4,16.2-14.6,28.8-19.8
		c8.4-3.5,23.7-7.4,23.7-7.4s1.4-0.2,2.3-2c0.9-1.7,2.5-5.1,2.6-6.6c0,0,0-1.9-0.2-2.3c-0.2-0.4-3-0.9-3-0.9l-4.6-1.3l0.4,0.7
		c-0.8-0.3-1.7-0.6-2.5-0.8c-3.6-1.1-2.9-3.2-7.3-3.9c-4.4-0.7-12.3-0.4-12.3-0.4s-5.2-3.6-7.4,1.2c-0.1,0.2-1.2,2.9-3.9,4
		c-5.2,2.1-20.3,3.3-22.8,3.3c0,0-8.6-0.7-17.2,6c-8.6,6.7-30.4-2.8-40.3,17.5c-2.5,5.1-3.7,11.2-4.1,17.4
		c-2.4-4.5-3.8-9.3-3.8-14.4C5.2,28.3,38.4,8,79.4,8c41,0,74.2,20.4,74.2,45.5c0,6.2-2,12.1-5.6,17.4C124.9,59.8,101.7,59.3,85,61.8
		z"/>
	<g>
		
			<linearGradient id="SVGID_00000021821403844951343930000008413994005274668196_" gradientUnits="userSpaceOnUse" x1="80.1852" y1="89.1141" x2="79.4228" y2="22.4334">
			<stop  offset="0" style="stop-color:#FEF9FB"/>
			<stop  offset="4.873342e-02" style="stop-color:#FAF5F6"/>
			<stop  offset="0.1079" style="stop-color:#EDE9E7"/>
			<stop  offset="0.1724" style="stop-color:#D8D5CE"/>
			<stop  offset="0.2407" style="stop-color:#BABAAC"/>
			<stop  offset="0.3114" style="stop-color:#959781"/>
			<stop  offset="0.3313" style="stop-color:#898C73"/>
			<stop  offset="0.4233" style="stop-color:#DEE6F5"/>
			<stop  offset="0.6442" style="stop-color:#FFFFFF"/>
			<stop  offset="0.7032" style="stop-color:#FAFCFE"/>
			<stop  offset="0.7709" style="stop-color:#ECF2F9"/>
			<stop  offset="0.8427" style="stop-color:#D5E1F2"/>
			<stop  offset="0.908" style="stop-color:#BACDEA"/>
		</linearGradient>
		<path style="fill:url(#SVGID_00000021821403844951343930000008413994005274668196_);" d="M79.7,0C35.8,0,0.1,23,0.1,51.3
			c0,28.3,35.6,51.3,79.6,51.3c44,0,79.6-23,79.6-51.3C159.4,23,123.7,0,79.7,0z M79.5,5.7c41,0,74.2,20.4,74.2,45.5
			c0,6.2-2,12.1-5.6,17.4c-23-11.1-46.3-11.7-62.9-9.1c0.9-1.7,1.8-3.5,2.9-5.4l-0.7,0.2c-7.8,6.8-15.9,23.8-12.8,36.4
			c0.8,3.4,1.7,5.2,2.5,6.1c-1.6,0-3.2-0.1-4.9-0.2c-12.1-12.1,4.6-35.8,4.6-35.8C82,52.4,93,46.2,105.5,41
			c8.4-3.5,23.7-7.4,23.7-7.4s1.4-0.1,2.3-2c1.1-2,3.3-6.3,1.8-7.3c-1.5-1-5.5-2.8-9.1-3.8c-3.6-1.1-2.9-3.2-7.3-3.9
			c-4.4-0.7-12.3-0.4-12.3-0.4c0,0-5.2-3.6-7.4,1.2c-0.1,0.2-1.2,2.9-3.9,4c-5.2,2.1-20.3,3.3-22.8,3.3c0,0-8.6-0.7-17.2,6
			c-8.6,6.7-30.4-2.8-40.3,17.5c-2.5,5.1-3.7,11.2-4.1,17.4c-2.4-4.5-3.8-9.3-3.8-14.4C5.3,26.1,38.5,5.7,79.5,5.7z M12.9,71.4
			c0.2-5,0.9-10.4,2.3-16.1c4.8-19.6,25.6-17.1,25.6-17.1c11.4-0.3,15.6-4.1,15.6-4.1c2-1.2,3.5-2.5,8.3-3.6
			c16.9-3.8,14.5,15.7,15.4,13.7c4.6-10-2.7-16.5-2.7-16.5c7.8,0.5,18.7-4.3,18.7-4.3c2.5,0.6,2.5-0.5,2.5-1.1
			c0.1-0.6-0.5-3.5,1.6-4.6c1.4-0.7,2.4,0.3,3.1,0.6c0.3,0.1,1.3,0.6,4.3,0.5c10-0.3,11.4,0.9,11.4,0.9c0.9,0.9,1.3,2.1,3.7,2.7
			c8.8,2.1,9.4,3.6,8.6,3.5c-0.8,0-2.1-0.1-2,1.2c0.1,1.3,0.3,2.4,0.3,2.4s0.2,1.8-1.3,2c-1.5,0.2-5.9,0.7-6.6-2.3
			c-0.7-3-1.1-4.4-1.7-5.3c-0.6-0.9,0.4,4.5-3.3,6.7C113,33,97.5,38.4,85.8,45.3c0,0-16.3,8.5-21.9,30.7c-2.5,9.9-2.8,15.1-0.4,19.8
			c-2.2-0.3-4.3-0.6-6.4-1c-2.2-1.7-4.5-7.6-1.7-27.7c0.4-3.1-6.3-2.3-15.4,1.6c0,0-10.2,4.3-14.9,13.8
			C20.3,79.1,16.1,75.4,12.9,71.4z M49.2,70.6c-10,5.6-14.7,10.5-16.3,16.1c-1.4-0.7-2.8-1.5-4.2-2.2c2.7-5.2,7-10.6,15.8-13.9
			c9.1-3.4,7.7-2,7.2,0.9c-0.9,5.7-2.8,16-1.6,21.5c-4.8-1.3-9.2-2.8-13.4-4.6c0.9-4.2,4.2-10,12.8-17.7L49.2,70.6z M86,96.6
			c-3.9-2.6-12.2-11.3-2.5-33.5l0.1-0.1c15.4-2.2,36.9-3.2,62.5,8.4C134.8,85.4,112.3,95.3,86,96.6z"/>
		
			<linearGradient id="SVGID_00000151532667884783693310000016854971230203825328_" gradientUnits="userSpaceOnUse" x1="102.5426" y1="88.8648" x2="101.7802" y2="22.1779">
			<stop  offset="0" style="stop-color:#FEF9FB"/>
			<stop  offset="4.873342e-02" style="stop-color:#FAF5F6"/>
			<stop  offset="0.1079" style="stop-color:#EDE9E7"/>
			<stop  offset="0.1724" style="stop-color:#D8D5CE"/>
			<stop  offset="0.2407" style="stop-color:#BABAAC"/>
			<stop  offset="0.3114" style="stop-color:#959781"/>
			<stop  offset="0.3313" style="stop-color:#898C73"/>
			<stop  offset="0.4233" style="stop-color:#DEE6F5"/>
			<stop  offset="0.6442" style="stop-color:#FFFFFF"/>
			<stop  offset="0.7032" style="stop-color:#FAFCFE"/>
			<stop  offset="0.7709" style="stop-color:#ECF2F9"/>
			<stop  offset="0.8427" style="stop-color:#D5E1F2"/>
			<stop  offset="0.908" style="stop-color:#BACDEA"/>
		</linearGradient>
		<path style="fill:url(#SVGID_00000151532667884783693310000016854971230203825328_);" d="M102.6,23c0.2-0.1,0.9-0.5,0.1-2
			c-0.8-1.5-1.8-1.2-1.8-1.2s-0.9,0.4-0.2,2C101.5,23.4,102.3,23.1,102.6,23z"/>
		
			<linearGradient id="SVGID_00000031908469589028957710000003070989883677539985_" gradientUnits="userSpaceOnUse" x1="116.1423" y1="88.7284" x2="115.3797" y2="22.0211">
			<stop  offset="0" style="stop-color:#FEF9FB"/>
			<stop  offset="4.873342e-02" style="stop-color:#FAF5F6"/>
			<stop  offset="0.1079" style="stop-color:#EDE9E7"/>
			<stop  offset="0.1724" style="stop-color:#D8D5CE"/>
			<stop  offset="0.2407" style="stop-color:#BABAAC"/>
			<stop  offset="0.3114" style="stop-color:#959781"/>
			<stop  offset="0.3313" style="stop-color:#898C73"/>
			<stop  offset="0.4233" style="stop-color:#DEE6F5"/>
			<stop  offset="0.6442" style="stop-color:#FFFFFF"/>
			<stop  offset="0.7032" style="stop-color:#FAFCFE"/>
			<stop  offset="0.7709" style="stop-color:#ECF2F9"/>
			<stop  offset="0.8427" style="stop-color:#D5E1F2"/>
			<stop  offset="0.908" style="stop-color:#BACDEA"/>
		</linearGradient>
		<path style="fill:url(#SVGID_00000031908469589028957710000003070989883677539985_);" d="M116.5,23.8c0.9-2.3-0.4-2.1-0.4-2.1
			l-2.2-0.2C113.9,21.5,113.7,24.1,116.5,23.8z"/>
	</g>
</g>
</svg>
